<?xml version="1.0" encoding="UTF-8" standalone="no"?><!DOCTYPE svg PUBLIC "-//W3C//DTD SVG 1.1//EN" "http://www.w3.org/Graphics/SVG/1.1/DTD/svg11.dtd"><svg width="100%" height="100%" viewBox="0 0 1693 495" version="1.1" xmlns="http://www.w3.org/2000/svg" xmlns:xlink="http://www.w3.org/1999/xlink" xml:space="preserve" xmlns:serif="http://www.serif.com/" style="fill-rule:evenodd;clip-rule:evenodd;stroke-linejoin:round;stroke-miterlimit:2;"><g id="logo-ohne-name" serif:id="logo ohne name"><g><path d="M1054.16,210.718c7.137,5.047 14.334,9.368 21.418,13.352c7.6,4.274 15.117,8.04 22.675,11.318c9.622,4.172 19.196,7.528 28.909,10.241c15.095,4.215 30.209,6.863 45.785,8.076c4.82,0.376 9.629,0.675 14.502,0.683c7.169,0.013 14.378,-0.486 21.634,-1.136c10.947,-0.98 21.993,-2.523 33.155,-4.361c15.983,-2.631 32.256,-5.673 48.762,-9.229c33.067,-7.122 67.068,-15.749 103.633,-18.845c11.494,-0.973 23.189,-1.449 35.14,-1.26c11.501,0.182 23.2,1.051 35.144,2.491c0.217,0.032 0.418,-0.118 0.45,-0.335c0.031,-0.217 -0.119,-0.418 -0.335,-0.45c-20.734,-3.671 -40.847,-5.107 -60.451,-5.601c-39.795,-1.002 -77.448,2.239 -113.505,7.503c-9.423,1.375 -18.696,3.006 -27.87,4.58c-22.474,3.856 -44.31,7.317 -65.725,9.423c-4.385,0.431 -8.737,0.853 -13.08,1.285c-17.708,1.759 -35.048,3.009 -52.634,1.054c-13.495,-1.5 -26.966,-4.424 -40.471,-9.401c-6.404,-2.36 -12.782,-5.201 -19.129,-8.566c-6.003,-3.184 -11.92,-6.918 -17.889,-10.993c-0.047,-0.033 -0.112,-0.021 -0.145,0.026c-0.032,0.048 -0.021,0.113 0.027,0.145Z" style="fill:#0ed7cf;"/><path d="M971.376,265.376c9.843,3.861 19.161,7.219 27.98,10.377c26.379,9.443 48.226,16.258 67.412,19.773c9.038,1.656 17.442,2.517 25.267,2.994c8.277,0.506 15.928,0.441 23.068,0.029c12.747,-0.738 23.919,-2.486 34.216,-4.955c29.331,-7.034 51.422,-18.77 87.989,-18.364c11.289,0.125 23.886,1.464 38.46,4.225c0.581,0.134 1.16,-0.229 1.293,-0.809c0.134,-0.58 -0.229,-1.16 -0.809,-1.293c-20.4,-5.588 -37.127,-7.763 -51.856,-8.212c-29.893,-0.91 -51.477,5.418 -78.049,9.914c-9.748,1.649 -20.156,3.157 -32.064,3.705c-6.665,0.307 -13.788,0.338 -21.519,0.091c-7.427,-0.238 -15.39,-0.815 -24.066,-1.581c-19,-1.677 -41.216,-4.214 -67.908,-10.398c-9.082,-2.104 -18.6,-4.679 -28.726,-7.541c-0.564,-0.189 -1.176,0.114 -1.366,0.679c-0.19,0.564 0.114,1.176 0.678,1.366Z" style="fill:#0ed7cf;"/><path d="M896.779,314.59c9.314,3.599 17.983,6.639 25.992,9.638c26.375,9.876 45.924,16.961 62.405,20.138c8.922,1.72 16.827,2.346 23.995,2.417c13.813,0.137 24.959,-2.017 36.073,-4.843c10.257,-2.609 20.508,-5.846 33.15,-9.085c15.195,-3.894 33.675,-8.229 60.367,-9.904c12.064,-0.757 25.687,-0.908 41.352,-0.594c0.551,0.039 1.031,-0.377 1.071,-0.929c0.039,-0.552 -0.377,-1.032 -0.929,-1.071c-15.671,-1.921 -29.353,-2.963 -41.515,-3.643c-27.635,-1.544 -47.239,-0.684 -63.283,1.788c-13.048,2.011 -23.566,4.881 -34.034,7.125c-10.032,2.15 -19.975,3.648 -32.331,3.884c-6.527,0.125 -13.694,-0.091 -21.952,-0.606c-16.312,-1.017 -36.508,-2.484 -63.315,-8.268c-8.34,-1.8 -17.192,-4.188 -26.816,-6.752c-0.195,-0.063 -0.404,0.043 -0.467,0.238c-0.064,0.194 0.043,0.404 0.237,0.467Z" style="fill:#0ed7cf;"/></g><g><g><path d="M551.815,235.689c6.568,-0.339 11.644,-2.052 15.92,-4.853c8.294,-5.435 13.781,-14.321 21.792,-23.32c8.108,-9.107 18.188,-18.77 34.461,-25.934c3.136,-1.381 6.549,-2.543 10.178,-3.671l4.341,-1.405l3.568,2.843c20.855,17.895 43.475,32.607 67.167,45.741c10.264,5.69 20.58,11.244 31.256,16.307c17.66,8.375 35.817,15.928 54.491,22.743c9.227,3.367 18.573,6.512 28.016,9.507c9.366,2.969 18.85,5.69 28.354,8.464c0.055,0.016 0.087,0.074 0.071,0.129c-0.016,0.055 -0.074,0.087 -0.129,0.072c-11.452,-3.204 -22.803,-6.577 -34.128,-9.831c-11.452,-3.291 -22.825,-6.59 -34.128,-9.955c-23.09,-6.872 -45.791,-13.905 -67.646,-22.949c-28.194,-11.667 -54.89,-26.105 -79.942,-44.06c-1.628,0.629 -3.193,1.279 -4.717,1.908c-14.008,5.774 -23.37,12.784 -30.812,20.034c-9.451,9.207 -16.512,17.977 -25.839,23.537c-6.235,3.718 -13.389,6.264 -22.922,6.441l-1.153,0.029l-1.078,-0.411c-3.601,-1.335 -8.353,1.166 -14.769,4.823c-10.372,5.911 -23.472,16.054 -39.606,27.651c-1.868,1.343 -3.757,2.733 -5.747,4.049c-15.795,10.445 -34.542,20.842 -55.235,31.361c-13.346,6.784 -27.583,13.29 -42.685,19.383c-13.971,5.637 -28.596,11.064 -44.129,15.285c-0.055,0.015 -0.113,-0.017 -0.129,-0.072c-0.016,-0.055 0.017,-0.113 0.072,-0.129c9.598,-2.798 18.911,-5.878 27.823,-9.447c9.293,-3.72 18.171,-7.874 26.665,-12.286c10.754,-5.585 20.836,-11.599 30.343,-17.776c15.856,-10.302 29.801,-21.168 42.515,-31.072c3.4,-2.648 6.648,-5.279 9.912,-7.699c16.667,-12.357 31.067,-22.234 42.165,-28.602c10.84,-6.22 19.535,-8.524 25.684,-6.835Z" style="fill:#fff;"/><path d="M906.703,121.906c14.21,-8.197 23.297,-19.072 33.18,-30.045c7.976,-8.856 16.392,-17.806 26.66,-26.521c9.558,-8.112 20.806,-15.847 35.063,-22.773l6.55,-3.457l5.792,4.614c20.92,17.441 37.503,44.726 58.373,62.402c12.528,10.611 26.764,17.275 44.684,14.274l4.816,-0.783l3.498,3.402c6.211,6.319 12.304,13.055 18.049,20.223c12.502,15.599 23.911,32.583 39.936,44.665c13.907,10.485 30.748,17.362 52.849,17.708c0.909,-0.033 1.673,0.677 1.707,1.585c0.033,0.908 -0.677,1.673 -1.585,1.706c-23.562,2.119 -42.045,-3.794 -58.196,-13.097c-18.317,-10.55 -33.726,-25.403 -48.367,-40.535c-4.934,-5.1 -9.658,-10.305 -14.572,-15.146c-16.043,1.43 -29.747,-2.897 -42.264,-10.358c-24.635,-14.686 -44.113,-43.583 -66.988,-63.378c-16.774,10.686 -27.633,22.744 -37.949,33.825c-10.18,10.935 -19.786,21.145 -31.567,29.784c-7.335,5.38 -15.509,10.089 -25.237,13.873l-5.322,2.386l-4.9,-3.165c-6.802,-4.899 -12.01,-7.484 -16.713,-8.224c-6.73,-1.059 -12.024,0.906 -17.817,2.415c-8.594,2.238 -17.9,4.14 -31.105,-0.238c-12.821,27.011 -25.811,46.95 -40.473,62.085c-19.099,19.717 -41.009,31.299 -69.831,38.69c-0.874,0.249 -1.786,-0.258 -2.035,-1.132c-0.25,-0.873 0.257,-1.785 1.131,-2.035c27.286,-8.589 48.043,-20.495 65.126,-40.611c14.018,-16.508 25.35,-38.51 36.257,-68.279l2.536,-6.175l6.236,2.382c15.489,5.073 23.761,0.457 32.226,-2.687c6.078,-2.257 12.23,-3.818 19.748,-3.416c5.79,0.309 12.392,2.033 20.504,6.036Z" style="fill:#fff;"/><path d="M1273.65,140.878c-13.426,4.929 -19.552,8.205 -28.598,11.54c-3.874,1.428 -8.298,2.77 -13.954,4.357c-7.253,1.676 -12.414,3.265 -16.55,4.577c-10.39,3.297 -14.022,5.707 -24.713,9.23c-3.743,1.234 -8.309,2.471 -14.294,4.118c-4.044,1.113 -8.682,2.541 -14.202,3.973c-0.055,0.016 -0.113,-0.016 -0.129,-0.072c-0.015,-0.055 0.017,-0.113 0.072,-0.128c3.922,-1.184 7.434,-2.216 10.528,-3.334c3.999,-1.445 7.322,-2.885 10.194,-4.233c16.714,-7.843 17.604,-12.395 31.298,-18.784c3.797,-1.771 8.611,-3.473 14.9,-5.571c14.368,-3.862 20.322,-6.771 31.204,-10.474c3.839,-1.306 8.286,-2.63 13.869,-4.193l2.497,-0.808l1.858,1.854c10.038,10.971 20.379,19.14 30.984,25.906c10.69,6.819 21.467,12.412 32.678,17.39c7.487,3.325 15.166,6.289 22.859,9.671c0.053,0.023 0.078,0.084 0.055,0.137c-0.022,0.053 -0.083,0.078 -0.136,0.055c-7.798,-3.13 -15.464,-6.113 -23.158,-8.923c-11.663,-4.259 -23.273,-8.289 -34.709,-14.116c-10.993,-5.601 -21.78,-12.663 -32.553,-22.172Z" style="fill:#fff;"/></g><g><path d="M698.003,273.695c-9.309,-6.113 -19.998,-13.175 -26.424,-38.4c-13.072,2.494 -25.18,30.34 -38.192,61.162c12.787,-83.993 -17.652,-32.569 -30.177,-32.824c49.38,-44.55 43.661,-59.09 32.613,-70.727l52.652,34.185c-2.017,15.723 8.997,41.946 9.528,46.604Z" style="fill:#fff;"/><path d="M1045.41,162.484c-9.309,-6.113 -2.316,-47.073 -31.139,-18.074c-13.072,2.494 -30.681,71.311 -43.694,102.133c12.788,-83.993 -78.949,16.94 -91.474,16.685c24.826,-22.397 85.878,-94.823 96.268,-67.373c-1.512,-27.331 55.396,-113.089 49.902,-118.876l41.258,45.037c-2.017,15.724 -21.652,35.81 -21.121,40.468Z" style="fill:#fff;"/><path d="M1120.41,207.261c-19.381,-5.054 -32.383,-20.508 -59.092,-84.792c40.534,-2.21 31.816,3.713 32.944,17.619c4.093,50.465 20.347,61.537 26.148,67.173Z" style="fill:#fff;"/><path d="M1240.25,176.662c4.023,-2.641 7.699,-5.379 12.047,-12.822c5.649,1.078 4.787,15.746 10.411,29.066c-5.526,-36.297 11.836,-23.625 17.248,-23.735c-16.624,-15.166 -22.023,-22.392 -17.248,-27.421l-19.598,11.629c5.587,7.738 -2.63,21.27 -2.86,23.283Z" style="fill:#fff;"/></g></g><g><g><path d="M462.352,482.892c18.229,-27.388 48.092,-53.815 82.699,-73.387c32.613,-18.444 69.429,-30.747 104.514,-31.915c16.438,-0.637 32.443,0.436 48.336,2.298c62.185,7.283 122.53,28.42 196.276,28.321c57.257,-0.357 95.177,-5.161 122.18,-11.83c34.8,-8.595 51.735,-20.192 68.314,-29.6c11.854,-6.726 23.503,-12.257 42.756,-14.144c20.447,-2.095 55.111,-19.118 95.748,-40.881c41.662,-22.312 89.836,-49.51 136.364,-67.712c37.877,-14.818 74.528,-23.813 105.245,-19.843c0.718,0.105 1.387,-0.392 1.493,-1.11c0.105,-0.718 -0.392,-1.387 -1.11,-1.493c-31.132,-5.151 -68.758,2.697 -107.884,16.348c-47.487,16.568 -97.26,41.505 -139.829,62.746c-39.147,19.534 -71.918,36.017 -91.357,37.641c-21.875,1.926 -35.202,7.968 -48.709,15.512c-15.734,8.788 -31.724,19.796 -64.641,27.859c-26.235,6.426 -63.059,11.037 -118.663,11.376c-73.088,0.803 -133.011,-20.371 -194.778,-26.341c-16.583,-1.602 -33.289,-2.021 -50.375,-0.829c-36.462,2.744 -74.272,17.022 -107.441,37.586c-34.441,21.353 -63.87,49.37 -81.356,77.983c-0.39,0.612 -0.21,1.426 0.402,1.816c0.612,0.391 1.426,0.211 1.816,-0.401Z" style="fill:#fff;"/><path d="M1452.57,362.859c-6.494,9.095 -12.422,16.955 -17.991,23.844c-4.934,6.105 -9.386,11.633 -13.971,16.295c-9.521,9.682 -18.524,16.243 -26.534,23.736c-8.237,7.704 -15.877,15.475 -23.863,25.766c-3.343,4.309 -6.687,9.068 -10.095,14.455c-2.91,4.598 -5.768,9.702 -8.834,15.279c-0.028,0.05 -0.091,0.069 -0.141,0.042c-0.051,-0.027 -0.07,-0.09 -0.043,-0.141c3.597,-6.89 7.13,-12.932 10.305,-18.531c6.03,-10.636 11.419,-19.25 16.799,-27.204c10.11,-14.95 19.003,-27.849 32.668,-45.414c1.216,-1.563 2.578,-3.073 3.935,-4.662c10.408,-12.186 22.803,-27.125 37.859,-47.965c1.758,-2.501 4.943,-3.564 7.851,-2.618c2.908,0.945 4.86,3.676 4.812,6.733c-0.613,18.851 1.187,31.909 4.83,40.915c2.326,5.749 5.271,9.737 8.999,12.276c7.504,5.112 17.209,5.045 27.171,4.319c11.125,-0.811 22.549,-2.579 32.35,-1.199c17.397,2.359 35.734,5.687 48.12,10.814c9.526,3.942 15.597,9.138 16.144,15.44c0.917,9.428 9.123,16.033 18.816,19.309c10.329,3.49 22.141,3.005 28.345,0.72c4.833,-1.911 10.115,-8.456 15.196,-15.427c1.891,-2.595 3.838,-5.196 5.416,-7.903c3.433,-5.887 6.212,-11.786 3.972,-16.219c-8.881,-17.915 -44.591,-43.054 -70.815,-72.381c-10.601,-11.855 -19.709,-24.326 -25.163,-37.202c-7.251,-16.968 -15.154,-30.2 -27.543,-40.586c-10.818,-9.07 -25.004,-15.876 -44.595,-21.519c-0.056,-0.015 -0.088,-0.073 -0.073,-0.128c0.016,-0.056 0.073,-0.088 0.129,-0.073c19.798,5.338 34,12.175 45.207,20.893c13.026,10.133 22.027,22.916 30.387,39.794c6.02,12.057 15.576,23.463 26.458,34.256c28.921,28.683 66.855,53.054 77.1,71.045c4.215,7.534 2.487,18.49 -3.277,28.839c-1.873,3.362 -4.045,6.752 -6.674,9.693c-7.401,8.277 -16.778,14.009 -23.359,15.205c-5.674,1.11 -14.599,0.256 -23.681,-2.33c-4.899,-1.395 -9.837,-3.185 -14.271,-5.552c-8.435,-4.5 -15.015,-10.963 -16.075,-19.957c-0.613,-4.903 -6.007,-8.205 -13.571,-10.965c-12.192,-4.448 -30.107,-6.713 -47.038,-8.198c-11.305,-0.931 -24.574,2.698 -37.06,3.73c-10.082,0.833 -19.659,-0.051 -27.692,-4.9c-9.795,-5.914 -17.652,-18.149 -20.51,-42.324Z" style="fill:#fff;"/></g><path d="M1517.54,182.621c-2.02,2.432 -4.412,5.151 -7.042,8.01c-9.829,10.684 -22.852,23.428 -30.751,31.226c-0.111,0.119 -0.298,0.126 -0.417,0.015c-0.12,-0.111 -0.127,-0.298 -0.016,-0.417c6.175,-7.253 15.718,-18.534 23.993,-28.779c6.517,-8.07 12.219,-15.451 14.588,-19.716c0.643,-1.066 1.912,-1.578 3.114,-1.259c1.203,0.32 2.05,1.395 2.079,2.639c0.02,3.665 -0.028,7.062 -0.318,10.2c-0.542,5.885 -1.648,10.839 -2.868,15.09c-3.563,12.414 -8.81,18.513 -12.01,22.206c-0.1,0.129 -0.285,0.154 -0.415,0.054c-0.129,-0.099 -0.153,-0.285 -0.054,-0.415c2.291,-3.355 5.874,-8.574 8.125,-17.816c1.298,-5.332 1.91,-11.97 1.986,-20.382l0.006,-0.656Z" style="fill:#fff;"/><path d="M1524.65,196.303c-2.139,4.1 -4.435,8.535 -7.299,12.748c-3.14,4.618 -6.898,8.979 -11.953,12.3c-0.132,0.096 -0.317,0.067 -0.413,-0.065c-0.097,-0.132 -0.068,-0.317 0.064,-0.413c4.563,-3.679 7.837,-8.205 10.378,-12.983c4.44,-8.35 6.687,-17.318 9.983,-23.602c0.608,-1.008 1.808,-1.493 2.946,-1.191c1.137,0.303 1.938,1.32 1.965,2.497c0.136,4.059 0.197,7.712 -0.165,10.97c-0.77,6.93 -2.632,12.061 -4.548,16.018c-4.083,8.431 -9.295,11.247 -12.621,13.005c-0.138,0.087 -0.321,0.045 -0.408,-0.093c-0.086,-0.138 -0.045,-0.321 0.094,-0.408c2.826,-2.084 7.276,-5.37 9.911,-13.707c1.214,-3.84 1.74,-8.725 2.066,-15.076Z" style="fill:#fff;"/><path d="M499.637,421.61c-13.222,-9.275 -26.199,-16.192 -38.773,-22.376c-28.704,-14.118 -55.395,-21.417 -83.556,-23.491c-7.381,-0.544 -14.657,-0.665 -22.081,-0.266c-5.424,0.292 -10.829,1.014 -16.242,1.892c-12.115,1.966 -24.24,4.895 -36.455,8.341c-16.198,4.569 -32.526,10.117 -49.408,15.863c-13.178,4.486 -26.549,9.119 -40.463,13.735c-29.596,9.817 -60.578,20.15 -96.429,24.377c-15.197,1.792 -31.06,2.535 -47.748,1.916c-15.246,-0.565 -31.075,-2.604 -47.63,-5.348c-0.056,-0.01 -0.111,0.027 -0.121,0.084c-0.011,0.056 0.027,0.111 0.083,0.121c14.032,2.83 27.606,4.654 40.687,6.329c14.25,1.824 27.891,3.184 41.168,4.055c16.236,1.064 31.65,1.415 46.723,1.225c24.953,-0.313 48.162,-1.554 70.606,-4.935c26.771,-4.033 51.714,-10.043 75.83,-15.562c13.678,-3.131 27.012,-6.152 40.15,-8.961c8.791,-1.881 17.497,-3.508 26.123,-5.349c14.609,-3.119 28.521,-6.928 43.599,-7.888c18.14,-1.154 36.581,-0.716 56.503,4.429c11.838,3.057 23.748,7.834 36.324,13.734c0.531,0.306 1.211,0.124 1.517,-0.408c0.306,-0.531 0.124,-1.211 -0.407,-1.517Z" style="fill:#fff;"/><path d="M1145.72,371.837c16.272,-5.387 31.037,-10.774 44.691,-15.787c26.083,-9.575 47.88,-17.942 66.251,-26.652c9.715,-4.606 18.477,-9.197 26.464,-13.757c16.446,-9.387 29.721,-18.358 41.906,-26.283c14.649,-9.53 27.424,-17.897 41.873,-24.6c16.12,-7.478 34.072,-13.093 58.304,-16.821c0.717,-0.08 1.233,-0.727 1.153,-1.443c-0.079,-0.717 -0.726,-1.233 -1.443,-1.153c-39.53,2.699 -63.684,11.408 -89.653,24.996c-11.693,6.118 -23.756,13.171 -37.671,21.319c-10.956,6.415 -23.203,13.261 -37.141,21.259c-21.262,12.201 -46.228,27.274 -79.452,42.651c-10.98,5.082 -22.85,10.098 -35.619,15.365c-0.25,0.094 -0.378,0.372 -0.285,0.622c0.094,0.25 0.372,0.377 0.622,0.284Z" style="fill:#fff;"/></g></g></svg>